<svg width="66" height="66" viewBox="0 0 66 66" fill="none" xmlns="http://www.w3.org/2000/svg">
<path opacity="0.937" fill-rule="evenodd" clip-rule="evenodd" d="M20.1738 -0.0644531C20.3027 -0.0644531 20.4316 -0.0644531 20.5605 -0.0644531C22.1471 1.32798 23.7585 2.70298 25.3945 4.06055C26.6786 5.54521 27.4949 7.26397 27.8438 9.2168C28.4032 9.66919 28.9404 10.1419 29.4551 10.6348C29.8386 10.5524 30.2253 10.4879 30.6152 10.4414C30.9396 10.0955 31.2834 9.77325 31.6465 9.47461C31.5565 5.84748 33.2967 4.12874 36.8672 4.31836C38.4981 2.24265 40.4962 1.79147 42.8613 2.96484C43.3985 3.33007 43.8497 3.78125 44.2148 4.31836C46.3962 3.96962 47.986 4.78602 48.9844 6.76758C49.3021 7.59352 49.3666 8.43141 49.1777 9.28125C49.6504 9.58203 50.0372 9.96875 50.3379 10.4414C50.8119 10.534 51.2845 10.5769 51.7559 10.5703C53.038 8.88441 54.7137 8.32581 56.7832 8.89453C57.6667 9.26355 58.3971 9.82214 58.9746 10.5703C61.6084 10.3268 63.3057 11.4655 64.0664 13.9863C64.169 14.5348 64.1475 15.0718 64.002 15.5977C64.9312 16.2877 65.5758 17.1685 65.9355 18.2402C65.9355 18.9707 65.9355 19.7011 65.9355 20.4316C65.5956 21.5044 64.9511 22.3637 64.002 23.0098C64.1427 26.5644 62.424 28.2831 58.8457 28.166C57.9894 29.3462 56.8292 29.9478 55.3652 29.9707C54.5502 37.9211 50.8119 44.0657 44.1504 48.4043C45.0709 50.4053 44.9849 52.3603 43.8926 54.2695C44.8975 56.0229 45.048 57.849 44.3438 59.748C44.0215 60.3926 43.6992 61.0371 43.377 61.6816C41.9672 61.821 40.5922 61.649 39.252 61.166C39.3513 61.9567 39.5233 62.7731 39.7676 63.6152C38.8763 63.8081 37.974 63.9585 37.0605 64.0664C36.0816 64.7268 35.0933 65.3498 34.0957 65.9355C33.4512 65.9355 32.8066 65.9355 32.1621 65.9355C31.8173 65.8253 31.4735 65.6749 31.1309 65.4844C29.8858 64.1193 28.3389 63.5822 26.4902 63.873C26.5794 62.9974 26.7513 62.138 27.0059 61.2949C26.9629 61.252 26.9199 61.2089 26.877 61.166C25.5817 61.6178 24.2497 61.8112 22.8809 61.7461C21.1656 59.3716 20.9509 56.8794 22.2363 54.2695C21.1203 52.3069 21.0773 50.3304 22.1074 48.3398C17.4021 45.5052 14.0934 41.5091 12.1816 36.3516C11.0223 36.2871 9.86213 36.2657 8.70117 36.2871C8.6797 34.2242 8.70119 32.1617 8.76562 30.0996C8.89873 29.3523 9.09209 28.6218 9.3457 27.9082C7.57775 27.6558 5.98791 26.9897 4.57617 25.9102C2.95092 24.1779 1.40405 22.3948 -0.0644531 20.5605C-0.0644531 20.4316 -0.0644531 20.3027 -0.0644531 20.1738C1.17762 18.7374 2.40223 17.2765 3.60938 15.791C4.11021 15.2728 4.64733 14.8002 5.2207 14.373C3.44075 12.4515 2.47396 10.1742 2.32031 7.54102C2.25587 5.77982 2.23438 4.0181 2.25586 2.25586C3.97515 2.23438 5.69389 2.25587 7.41211 2.32031C10.1529 2.43095 12.4947 3.44073 14.4375 5.34961C15.0508 4.47795 15.7598 3.68303 16.5645 2.96484C17.8299 2.02103 19.033 1.01126 20.1738 -0.0644531ZM20.3027 2.77148C21.632 3.81314 22.8996 4.93032 24.1055 6.12305C24.6496 6.86755 25.0578 7.68395 25.3301 8.57227C23.9626 8.78249 22.8883 9.44851 22.1074 10.5703C21.9271 10.647 21.7553 10.6255 21.5918 10.5059C21.463 9.17659 21.4201 7.84456 21.4629 6.50977C20.7324 6.50977 20.002 6.50977 19.2715 6.50977C19.2929 7.37021 19.2715 8.22959 19.207 9.08789C18.8184 8.67761 18.4101 8.29089 17.9824 7.92773C17.4239 8.40039 16.9082 8.91602 16.4355 9.47461C17.0801 10.1621 17.7246 10.8496 18.3691 11.5371C17.3102 12.4997 16.8159 13.7029 16.8867 15.1465C14.6697 12.206 14.5837 9.19822 16.6289 6.12305C17.8401 4.97559 19.0647 3.8584 20.3027 2.77148ZM4.57617 4.57617C7.24746 4.17556 9.69668 4.71267 11.9238 6.1875C12.4457 6.666 12.9183 7.18162 13.3418 7.73438C13.0309 8.89354 12.8804 10.0752 12.8906 11.2793C11.1074 9.4961 9.32421 7.71289 7.54102 5.92969C7.41211 5.84375 7.2832 5.84375 7.1543 5.92969C6.74609 6.33789 6.33789 6.74609 5.92969 7.1543C5.84375 7.2832 5.84375 7.41211 5.92969 7.54102C7.71289 9.32421 9.4961 11.1074 11.2793 12.8906C9.98084 12.9339 8.69177 13.0199 7.41211 13.1484C5.86897 11.8459 4.94514 10.1915 4.64062 8.18555C4.5762 6.98319 4.55471 5.78007 4.57617 4.57617ZM40.0254 4.57617C40.7612 4.47177 41.4057 4.66513 41.959 5.15625C42.3692 5.82623 42.6914 6.53521 42.9258 7.2832C43.5827 6.85806 44.2917 6.55728 45.0527 6.38086C46.5689 6.67174 47.1921 7.57408 46.9219 9.08789C46.6875 9.55654 46.4512 10.0292 46.2129 10.5059C46.906 10.7885 47.5935 11.1107 48.2754 11.4727C49.1576 12.5398 49.1147 13.571 48.1465 14.5664C47.4923 14.8343 46.8478 15.1135 46.2129 15.4043C46.4492 15.877 46.6856 16.3496 46.9219 16.8223C47.0561 17.4591 46.9701 18.0605 46.6641 18.627C46.1112 17.3005 45.2304 16.2693 44.0215 15.5332C45.3305 13.2014 44.9869 11.1604 42.9902 9.41016C40.8167 8.23671 38.8618 8.516 37.125 10.248C35.7356 12.4904 35.9719 14.553 37.834 16.4355C37.0926 17.1994 36.5985 18.1018 36.3516 19.1426C36.2038 17.6652 35.5378 16.4835 34.3535 15.5977C34.6157 13.9566 34.143 12.5601 32.9355 11.4082C33.5491 11.0673 34.1937 10.788 34.8691 10.5703C34.3078 9.81576 34.0284 8.97787 34.0312 8.05664C34.3052 7.08029 34.9497 6.5217 35.9648 6.38086C36.7098 6.59206 37.4188 6.89284 38.0918 7.2832C38.3405 6.68798 38.5767 6.08641 38.8008 5.47852C39.1268 5.04218 39.535 4.7414 40.0254 4.57617ZM25.3301 10.8926C26.1607 10.8365 26.8267 11.1373 27.3281 11.7949C27.573 12.4268 27.8523 13.0283 28.166 13.5996C28.7881 13.2128 29.4542 12.9549 30.1641 12.8262C31.7354 12.9805 32.38 13.8399 32.0977 15.4043C31.8566 15.971 31.6203 16.5295 31.3887 17.0801C32.9087 17.1194 33.8111 17.8713 34.0957 19.3359C34.0216 20.0128 33.7208 20.5714 33.1934 21.0117C32.5854 21.2358 31.984 21.472 31.3887 21.7207C31.625 22.1934 31.8614 22.666 32.0977 23.1387C32.364 24.6714 31.741 25.5737 30.2285 25.8457C29.429 25.6606 28.6556 25.4028 27.9082 25.0723C27.8752 26.5867 27.1233 27.489 25.6523 27.7793C25.1136 27.7032 24.6411 27.4884 24.2344 27.1348C23.8519 26.4548 23.5081 25.7673 23.2031 25.0723C22.7012 25.291 22.2071 25.5273 21.7207 25.7812C20.2345 25.9707 19.3753 25.3262 19.1426 23.8477C19.3466 23.075 19.6044 22.323 19.916 21.5918C18.8106 21.4809 17.9728 20.9653 17.4023 20.0449C17.1829 19.1754 17.3763 18.4235 17.9824 17.7891C18.5826 17.4386 19.2271 17.2022 19.916 17.0801C19.6044 16.3489 19.3466 15.5969 19.1426 14.8242C19.3981 13.2802 20.3004 12.6356 21.8496 12.8906C22.313 13.1114 22.7642 13.3479 23.2031 13.5996C23.5009 12.9695 23.8016 12.3249 24.1055 11.666C24.4719 11.3228 24.8801 11.065 25.3301 10.8926ZM40.1543 10.8926C41.5192 10.9251 42.3355 11.6126 42.6035 12.9551C42.1902 14.7516 41.1159 15.3317 39.3809 14.6953C38.3812 13.8091 38.2308 12.7993 38.9297 11.666C39.2962 11.3228 39.7043 11.065 40.1543 10.8926ZM54.9785 10.8926C55.8794 10.8382 56.5884 11.1819 57.1055 11.9238C57.2572 12.5329 57.4936 13.0916 57.8145 13.5996C58.2872 13.3633 58.7597 13.1269 59.2324 12.8906C60.7793 12.6328 61.6816 13.2773 61.9395 14.8242C61.7469 15.5538 61.446 16.2413 61.0371 16.8867C61.6343 17.1435 62.2358 17.4013 62.8418 17.6602C64.0449 18.7774 64.0449 19.8945 62.8418 21.0117C62.2397 21.2481 61.6381 21.4844 61.0371 21.7207C61.4296 22.3976 61.7305 23.1066 61.9395 23.8477C61.6873 25.3055 60.8279 25.95 59.3613 25.7812C58.8304 25.5803 58.3147 25.3439 57.8145 25.0723C57.5007 25.6436 57.2215 26.2451 56.9766 26.877C55.9532 27.9871 54.9004 28.0301 53.8184 27.0059C53.5069 26.3471 53.1847 25.7026 52.8516 25.0723C52.4578 25.2155 52.0926 25.4088 51.7559 25.6523C51.5049 25.7801 51.2471 25.8231 50.9824 25.7812C51.4416 23.3055 50.6252 21.3719 48.5332 19.9805C49.2217 18.9468 49.4366 17.8297 49.1777 16.6289C50.523 15.7217 51.1675 14.454 51.1113 12.8262C51.7387 13.0106 52.3402 13.2684 52.916 13.5996C53.1755 12.952 53.4547 12.3074 53.7539 11.666C54.1204 11.3228 54.5285 11.065 54.9785 10.8926ZM9.2168 15.1465C11.7855 14.9554 13.8051 15.9008 15.2754 17.9824C15.1076 18.396 15.0216 18.8256 15.0176 19.2715C14.5001 19.2929 13.9845 19.2714 13.4707 19.207C12.5414 18.2346 11.5746 17.3107 10.5703 16.4355C9.97269 16.8827 9.43559 17.3983 8.95898 17.9824C9.32214 18.4101 9.70886 18.8184 10.1191 19.207C8.91678 19.2715 7.71366 19.2929 6.50977 19.2715C6.50977 20.002 6.50977 20.7324 6.50977 21.4629C7.7566 21.4415 9.0027 21.4629 10.248 21.5273C9.81836 21.957 9.38867 22.3868 8.95898 22.8164C9.4961 23.3536 10.0332 23.8906 10.5703 24.4277C11.5371 23.4609 12.5039 22.4941 13.4707 21.5273C14.205 21.4204 14.9355 21.4419 15.6621 21.5918C15.705 21.6778 15.7481 21.7636 15.791 21.8496C13.989 25.1508 11.282 26.2465 7.66992 25.1367C6.72295 24.6627 5.88506 24.0396 5.15625 23.2676C4.36132 22.3008 3.56641 21.334 2.77148 20.3672C3.80273 19.1641 4.83398 17.9609 5.86523 16.7578C6.87561 15.9732 7.99281 15.436 9.2168 15.1465ZM25.5879 17.209C27.5046 17.648 28.0847 18.7653 27.3281 20.5605C26.1689 21.6301 25.0516 21.5872 23.9766 20.4316C23.352 18.7587 23.8892 17.6845 25.5879 17.209ZM41.4434 17.209C43.8507 17.5924 44.925 19.0103 44.666 21.4629C46.5 21.2517 47.8535 21.9393 48.7266 23.5254C49.2132 25.4524 48.5473 26.8059 46.7285 27.5859C46.0496 27.7395 45.362 27.8039 44.666 27.7793C44.8858 30.7176 43.5537 32.0711 40.6699 31.8398C38.9154 31.0602 38.1849 29.7067 38.4785 27.7793C35.2236 27.9005 33.913 26.3965 34.5469 23.2676C35.4626 21.8542 36.7732 21.2526 38.4785 21.4629C38.2283 19.1408 39.2166 17.7228 41.4434 17.209ZM55.2363 17.209C57.1653 17.6501 57.7454 18.7673 56.9766 20.5605C55.8213 21.6226 54.7042 21.5796 53.625 20.4316C53.0008 18.7579 53.538 17.6837 55.2363 17.209ZM41.1855 23.6543C41.9687 23.5296 42.4412 23.8519 42.6035 24.6211C42.3216 25.5884 41.7415 25.8247 40.8633 25.3301C40.4227 24.6648 40.5302 24.1062 41.1855 23.6543ZM16.8223 24.4277C16.9875 24.9303 17.2024 25.4246 17.4668 25.9102C15.6818 27.6737 13.9201 29.4569 12.1816 31.2598C12.6584 31.8893 13.217 32.3836 13.8574 32.7422C15.5332 31.0664 17.209 29.3906 18.8848 27.7148C19.5921 27.913 20.3225 28.0205 21.0762 28.0371C20.3069 30.8223 18.5666 32.7129 15.8555 33.709C15.3721 33.8647 14.8778 33.9722 14.373 34.0312C13.2137 34.0957 12.0535 34.1171 10.8926 34.0957C10.8187 32.5336 10.9261 30.9867 11.2148 29.4551C11.3801 28.8668 11.6164 28.3082 11.9238 27.7793C13.1505 27.3378 14.3107 26.7577 15.4043 26.0391C15.9518 25.5567 16.4245 25.0197 16.8223 24.4277ZM32.5488 27.3926C32.9893 27.8122 33.4189 28.2633 33.8379 28.7461C34.4016 29.1568 35.0032 29.5006 35.6426 29.7773C34.7638 30.5486 33.9044 31.3434 33.0645 32.1621C31.804 30.8149 30.429 29.6117 28.9395 28.5527C29.2191 28.0514 29.6273 27.9225 30.1641 28.166C31.0339 28.098 31.8289 27.8401 32.5488 27.3926ZM49.9512 28.0371C50.5543 28.0157 51.1558 28.0372 51.7559 28.1016C52.1061 28.6667 52.5788 29.0965 53.1738 29.3906C52.4567 37.019 48.8473 42.8198 42.3457 46.793C38.9203 47.0012 36.2132 48.4836 34.2246 51.2402C33.8379 51.1543 33.4512 51.0684 33.0645 50.9824C32.6779 51.1041 32.2911 51.1686 31.9043 51.1758C30.8715 49.7985 29.6038 48.7028 28.1016 47.8887C29.0209 41.3438 31.9858 35.9298 36.9961 31.6465C38.445 33.7774 40.443 34.5724 42.9902 34.0312C45.0499 33.4111 46.339 32.0576 46.8574 29.9707C48.094 29.633 49.1253 28.9884 49.9512 28.0371ZM23.1387 29.1973C24.2924 29.919 25.5384 30.1553 26.877 29.9062C28.5981 31.0484 30.145 32.4019 31.5176 33.9668C28.5192 37.868 26.6072 42.2508 25.7812 47.1152C24.972 46.9777 24.1771 46.7843 23.3965 46.5352C19.4151 44.0573 16.4932 40.6627 14.6309 36.3516C18.8703 35.6124 21.7063 33.2276 23.1387 29.1973ZM24.2988 49.0488C26.813 49.4464 28.7895 50.6924 30.2285 52.7871C29.7129 53.7754 29.7129 54.7636 30.2285 55.752C28.8655 57.8735 26.9319 59.1196 24.4277 59.4902C24.1889 59.4014 24.0386 59.2296 23.9766 58.9746C23.6124 58.0863 23.5695 57.184 23.8477 56.2676C24.1875 55.6094 24.5097 54.9435 24.8145 54.2695C24.4316 53.4823 24.0663 52.6873 23.7188 51.8848C23.5177 50.8542 23.711 49.9089 24.2988 49.0488ZM41.7012 49.0488C42.588 50.0237 42.7814 51.141 42.2812 52.4004C41.948 53.0021 41.6687 53.6253 41.4434 54.2695C41.6687 54.9138 41.948 55.5369 42.2812 56.1387C42.7084 57.1443 42.6654 58.1325 42.1523 59.1035C42.1076 59.3201 41.9787 59.449 41.7656 59.4902C39.252 59.1052 37.3399 57.8377 36.0293 55.6875C36.3731 54.7422 36.3731 53.7968 36.0293 52.8516C37.3526 50.7326 39.2432 49.4651 41.7012 49.0488ZM32.6777 53.3027C33.4678 53.1809 33.9405 53.5032 34.0957 54.2695C33.9405 55.0566 33.4678 55.3574 32.6777 55.1719C31.9963 54.5491 31.9963 53.926 32.6777 53.3027ZM31.9043 57.2988C32.6753 57.6296 33.4487 57.6296 34.2246 57.2988C34.69 57.9579 35.2271 58.5595 35.8359 59.1035C36.3463 59.9516 36.7115 60.8539 36.9316 61.8105C35.7579 62.0106 34.7696 62.5478 33.9668 63.4219C33.4767 63.7864 32.9611 63.8293 32.4199 63.5508C31.5056 62.6635 30.4314 62.0405 29.1973 61.6816C29.5347 60.7487 29.943 59.8464 30.4219 58.9746C30.9907 58.4708 31.485 57.9123 31.9043 57.2988Z" fill="white"/>
</svg>
