<svg width="66" height="66" viewBox="0 0 66 66" fill="none" xmlns="http://www.w3.org/2000/svg">
<path opacity="0.93" fill-rule="evenodd" clip-rule="evenodd" d="M26.8066 -0.0644531C27.5801 -0.0644531 28.3535 -0.0644531 29.127 -0.0644531C30.3661 0.353145 31.3329 1.12658 32.0273 2.25586C35.1855 7.9707 38.3438 13.6856 41.502 19.4004C44.1224 19.2908 46.2278 20.2576 47.8184 22.3008C50.9807 22.8422 52.9358 24.6684 53.6836 27.7793C53.8665 29.1938 53.7162 30.5688 53.2324 31.9043C54.373 35.0325 53.75 37.7395 51.3633 40.0254C50.1724 46.1519 48.8834 52.2534 47.4961 58.3301C47.1011 59.0119 46.521 59.463 45.7559 59.6836C37.7209 59.748 29.6856 59.7696 21.6504 59.748C21.6504 59.0606 21.6504 58.373 21.6504 57.6855C29.5138 57.7071 37.3771 57.6855 45.2402 57.6211C45.5387 57.4781 45.732 57.2417 45.8203 56.9121C46.9194 51.6745 47.9506 46.4324 48.9141 41.1855C48.5529 41.2925 48.1877 41.3999 47.8184 41.5078C46.1998 43.6381 44.0513 44.5405 41.373 44.2148C39.5855 43.923 38.1675 43.0421 37.1191 41.5723C35.7061 41.3382 34.4599 40.7581 33.3809 39.832C33.8101 39.2954 34.2827 38.8013 34.7988 38.3496C35.8203 39.1318 36.9804 39.497 38.2793 39.4453C39.8276 42.1743 42.019 42.8617 44.8535 41.5078C45.6088 41.0071 46.1673 40.3412 46.5293 39.5098C50.1791 39.2766 51.8763 37.343 51.6211 33.709C51.4201 33.0924 51.1837 32.4908 50.9121 31.9043C52.1865 29.5033 51.8857 27.3333 50.0098 25.3945C48.9625 24.6803 47.8024 24.3151 46.5293 24.2988C45.5066 22.3048 43.8737 21.424 41.6309 21.6562C40.6717 21.8242 39.8767 22.2754 39.2461 23.0098C39.4425 24.6125 39.2921 26.1809 38.7949 27.7148C38.8378 27.8222 38.8809 27.9297 38.9238 28.0371C41.302 26.3041 43.6654 26.3255 46.0137 28.1016C47.7945 30.1861 48.0309 32.442 46.7227 34.8691C44.5235 37.3515 42.0098 37.7167 39.1816 35.9648C38.7677 35.5727 38.381 35.1645 38.0215 34.7402C36.8123 36.1836 35.2655 37.0644 33.3809 37.3828C31.8461 39.3315 29.8265 40.2768 27.3223 40.2188C26.1836 41.3574 25.0449 42.4961 23.9062 43.6348C23.8633 47.1152 23.8203 50.5957 23.7773 54.0762C19.9746 57.8789 16.1719 61.6816 12.3691 65.4844C12.0565 65.6407 11.7557 65.791 11.4668 65.9355C10.8652 65.9355 10.2637 65.9355 9.66211 65.9355C9.30968 65.7802 8.96589 65.5869 8.63086 65.3555C5.98828 62.7129 3.3457 60.0703 0.703125 57.4277C-0.0703125 56.1387 -0.0703125 54.8496 0.703125 53.5605C2.60338 51.7251 4.42956 49.8344 6.18164 47.8887C5.61982 45.2729 5.0827 42.6519 4.57031 40.0254C2.18404 37.741 1.561 35.034 2.70117 31.9043C1.44596 28.305 2.3483 25.4046 5.4082 23.2031C6.26262 22.7638 7.16494 22.4631 8.11523 22.3008C9.70581 20.2576 11.8112 19.2908 14.4316 19.4004C17.6499 13.5402 20.8941 7.69648 24.1641 1.86914C24.8482 0.947774 25.729 0.303243 26.8066 -0.0644531ZM27.1934 1.99805C28.7505 1.77733 29.8463 2.37889 30.4805 3.80273C33.4934 9.24868 36.5227 14.6842 39.5684 20.1094C39.0814 20.3816 38.6302 20.7039 38.2148 21.0762C36.996 19.4673 35.3847 18.5005 33.3809 18.1758C30.907 15.2268 27.9422 14.6252 24.4863 16.3711C23.7186 16.838 23.074 17.4396 22.5527 18.1758C20.5489 18.5005 18.9376 19.4673 17.7188 21.0762C17.3081 20.7507 16.8998 20.4284 16.4941 20.1094C19.6609 14.2052 22.9264 8.36148 26.291 2.57812C26.6001 2.38165 26.9009 2.18829 27.1934 1.99805ZM27.0645 17.4668C29.3558 17.2585 31.0315 18.1608 32.0918 20.1738C35.8854 20.4614 37.5398 22.4809 37.0547 26.2324C36.922 26.7982 36.6858 27.3138 36.3457 27.7793C37.6746 29.9911 37.5026 32.075 35.8301 34.0312C34.7536 34.9274 33.5076 35.3786 32.0918 35.3848C30.4442 38.1383 28.2099 38.7613 25.3887 37.2539C24.7261 36.7209 24.2105 36.0763 23.8418 35.3203C21.7201 35.3882 20.1517 34.5073 19.1367 32.6777C18.4346 30.9633 18.5849 29.3306 19.5879 27.7793C18.0915 25.1862 18.4783 22.9304 20.748 21.0117C21.704 20.4568 22.7353 20.1774 23.8418 20.1738C24.5655 18.8482 25.6398 17.9458 27.0645 17.4668ZM12.627 21.5918C14.3378 21.3812 15.7558 21.9182 16.8809 23.2031C16.6964 23.7631 16.6104 24.3432 16.623 24.9434C16.7177 26.0362 16.8681 27.1104 17.0742 28.166C15.4696 26.7501 13.6434 26.3849 11.5957 27.0703C9.14545 28.2529 8.0928 30.208 8.4375 32.9355C9.32734 35.9061 11.3254 37.2596 14.4316 36.9961C15.8813 36.684 17.0415 35.9321 17.9121 34.7402C18.9874 36.0528 20.3624 36.912 22.0371 37.3184C20.9681 38.8196 19.5072 39.5286 17.6543 39.4453C16.1083 42.1806 13.9169 42.8682 11.0801 41.5078C10.3248 41.0071 9.76627 40.3412 9.4043 39.5098C6.26855 39.424 4.54979 37.8342 4.24805 34.7402C4.26954 33.7305 4.52735 32.7851 5.02148 31.9043C3.74524 29.5012 4.04601 27.3313 5.92383 25.3945C6.97106 24.6803 8.13122 24.3151 9.4043 24.2988C10.1031 22.9409 11.1773 22.0386 12.627 21.5918ZM12.8848 28.8105C14.8213 28.6712 16.0459 29.5306 16.5586 31.3887C16.5595 33.837 15.3349 35.0185 12.8848 34.9336C10.5736 34.0704 9.90755 32.5022 10.8867 30.2285C11.4232 29.544 12.0893 29.0715 12.8848 28.8105ZM41.7598 28.8105C43.5985 28.623 44.8231 29.3964 45.4336 31.1309C45.7334 33.0882 44.9386 34.3557 43.0488 34.9336C41.0822 35.0786 39.8576 34.1978 39.375 32.291C39.3399 30.555 40.1349 29.3949 41.7598 28.8105ZM23.584 38.6074C24.0711 38.8732 24.5438 39.1741 25.002 39.5098C24.166 40.4103 23.3066 41.2911 22.4238 42.1523C21.0488 42.2383 19.6739 42.2383 18.2988 42.1523C18.4946 41.9782 18.6665 41.7848 18.8145 41.5723C20.4771 41.2674 21.9165 40.5369 23.1328 39.3809C23.316 39.1353 23.4664 38.8775 23.584 38.6074ZM6.95508 41.1855C7.33922 41.2843 7.72594 41.3917 8.11523 41.5078C8.77665 42.3969 9.59302 43.1059 10.5645 43.6348C9.74989 44.5138 8.912 45.3732 8.05078 46.2129C7.61276 44.5607 7.24757 42.8849 6.95508 41.1855ZM12.8848 44.2793C15.3344 44.2578 17.7836 44.2793 20.2324 44.3438C19.5019 45.0743 18.7715 45.8046 18.041 46.5352C16.73 46.1404 15.527 46.3553 14.4316 47.1797C13.4713 48.321 13.2779 49.5887 13.8516 50.9824C15.014 52.589 16.4965 52.9542 18.2988 52.0781C19.0027 51.5882 19.4538 50.9221 19.6523 50.0801C19.7125 49.379 19.6696 48.6915 19.5234 48.0176C20.254 47.2871 20.9843 46.5567 21.7148 45.8262C21.8008 48.2754 21.8008 50.7246 21.7148 53.1738C18.1699 56.7188 14.625 60.2637 11.0801 63.8086C10.6761 63.9104 10.2894 63.8675 9.91992 63.6797C7.40625 61.166 4.89258 58.6523 2.37891 56.1387C2.12109 55.709 2.12109 55.2793 2.37891 54.8496C5.90684 51.3432 9.40881 47.8197 12.8848 44.2793ZM16.3652 48.4043C17.2011 48.4449 17.6093 48.8745 17.5898 49.6934C17.3666 50.353 16.9154 50.5893 16.2363 50.4023C15.6742 50.1154 15.4808 49.6642 15.6562 49.0488C15.8793 48.8036 16.1155 48.5888 16.3652 48.4043Z" fill="white"/>
</svg>
