<svg width="64" height="60" viewBox="0 0 64 60" fill="none" xmlns="http://www.w3.org/2000/svg">
<path opacity="0.899" fill-rule="evenodd" clip-rule="evenodd" d="M34.1268 0.80272C38.4683 0.481692 41.9488 2.05006 44.5682 5.5078C46.2263 7.08058 48.031 8.45559 49.9823 9.6328C50.9569 10.4007 51.4295 11.4104 51.4002 12.6621C51.2619 14.3544 50.8321 15.9657 50.1112 17.4961C52.7822 16.8384 55.2744 17.2682 57.5877 18.7851C60.1706 20.534 61.9968 22.8757 63.0662 25.8105C63.2978 26.4788 63.4051 27.1662 63.3885 27.873C63.2262 28.9855 63.0973 30.1027 63.0018 31.2246C63.0679 32.3949 63.2183 33.5551 63.453 34.7051C63.6957 36.6125 63.4809 38.4602 62.8084 40.248C61.8862 42.244 60.6616 44.0273 59.1346 45.5976C58.2879 46.2097 57.3425 46.5964 56.2987 46.7578C53.5878 47.0743 50.9237 46.838 48.3065 46.0488C48.8788 49.2672 48.2558 52.2321 46.4373 54.9433C45.2266 56.2257 43.7442 57.0207 41.9901 57.3281C38.741 59.1028 35.3034 59.5755 31.6776 58.7461C29.7413 58.5592 27.9796 57.9146 26.3924 56.8125C24.7683 55.3038 23.9735 53.4346 24.0076 51.2051C21.7773 53.7704 18.9629 55.1453 15.5643 55.3301C14.6653 55.2964 13.8059 55.1031 12.9862 54.75C12.3812 54.1896 11.6936 53.7599 10.9237 53.4609C9.6462 53.1109 8.35714 52.8101 7.05647 52.5586C4.79135 51.8832 3.35189 50.4008 2.73811 48.1113C2.35139 46.3496 1.96468 44.5879 1.57796 42.8262C-0.0926164 39.6628 -0.049648 36.526 1.70686 33.416C2.18102 32.6397 2.71813 31.9092 3.31819 31.2246C2.8119 30.3832 2.44667 29.4809 2.22249 28.5176C1.35048 25.9628 0.877816 23.3416 0.80452 20.6543C0.971775 19.0694 1.72374 17.8448 3.06038 16.9805C4.03299 16.4727 5.02128 16 6.02522 15.5625C7.04397 14.9654 7.66701 14.0846 7.89436 12.9199C8.07073 11.5636 8.45745 10.2745 9.05452 9.05272C10.0746 7.95267 11.3422 7.37259 12.8573 7.31249C15.3765 7.06719 17.8257 7.36797 20.2049 8.21483C21.7517 8.8593 22.9333 9.91201 23.7498 11.373C24.8961 7.59357 27.0659 4.56427 30.2596 2.28514C31.4677 1.54638 32.7568 1.05224 34.1268 0.80272ZM34.3846 2.22069C36.7908 2.01646 38.9822 2.59654 40.9588 3.96092C42.2877 5.33272 43.6628 6.66474 45.0838 7.95702C46.3084 9.05254 47.6404 9.99786 49.0799 10.793C49.6764 11.2908 49.9772 11.9353 49.9823 12.7265C49.4928 15.4888 48.4829 18.0453 46.953 20.3965C44.5612 24.1647 41.6178 27.4518 38.1229 30.2578C37.2632 30.8598 36.3609 31.3969 35.4158 31.8691C35.1928 31.8013 35.0209 31.6724 34.9002 31.4824C36.4971 28.7898 37.2061 25.8679 37.0272 22.7168C38.4704 21.8859 38.8141 20.7257 38.0584 19.2363C37.0175 18.1659 35.8789 18.0585 34.6424 18.914C33.5707 20.4888 33.8499 21.7564 35.4803 22.7168C35.7456 25.5155 35.187 28.1365 33.8045 30.5801C33.6732 30.7331 33.5227 30.862 33.3533 30.9668C32.8886 30.8392 32.4159 30.7533 31.9354 30.709C32.385 28.569 32.4279 26.4205 32.0643 24.2637C32.4199 23.8419 32.6993 23.3692 32.9022 22.8457C33.1596 21.1229 32.4291 20.1776 30.7108 20.0098C28.8937 20.281 28.2061 21.3122 28.6483 23.1035C29.073 23.9075 29.7391 24.3802 30.6463 24.5215C31.0347 26.512 30.9703 28.4886 30.453 30.4512C30.0695 30.7183 29.6398 30.8902 29.1639 30.9668C28.1038 26.8411 26.6858 22.845 24.91 18.9785C23.9384 13.2137 25.5927 8.33671 29.8729 4.34764C31.2215 3.28637 32.7254 2.57739 34.3846 2.22069ZM12.8573 8.666C15.1532 8.48034 17.3875 8.75964 19.5604 9.50389C22.2779 10.8562 23.438 13.0477 23.0408 16.0781C23.0879 17.1462 23.2383 18.199 23.492 19.2363C25.2212 23.0916 26.6176 27.0662 27.6815 31.1601C27.4398 31.3999 27.1604 31.5933 26.8436 31.7402C25.7666 29.7606 24.2841 28.1493 22.3963 26.9062C21.5797 26.3258 20.7203 25.8101 19.8182 25.3594C19.7438 23.6088 18.8415 22.8354 17.1112 23.039C15.7934 23.7216 15.4711 24.7313 16.1444 26.0683C16.3942 26.4043 16.7164 26.6406 17.1112 26.7773C17.815 26.8527 18.5026 26.8097 19.1737 26.6484C21.0232 27.6058 22.6775 28.8304 24.1366 30.3223C24.6638 30.9575 25.1149 31.645 25.4901 32.3848C24.9368 32.8733 24.3998 33.3889 23.8787 33.9316C22.5029 32.2442 20.7198 31.2774 18.5291 31.0312C17.5702 29.5591 16.4745 29.4517 15.242 30.709C14.7653 32.3795 15.3883 33.2603 17.1112 33.3515C17.7046 33.1632 18.2203 32.8839 18.658 32.5137C20.4723 32.7648 21.9116 33.6241 22.9764 35.0918C23.0089 35.4052 22.9444 35.706 22.783 35.9941C18.4324 36.2291 14.1785 35.692 10.0213 34.3828C7.8478 33.7111 6.06459 32.4865 4.67171 30.709C3.60052 28.2737 2.82708 25.7385 2.35139 23.1035C2.05224 21.9712 2.09521 20.854 2.4803 19.7519C2.74779 19.2261 3.11302 18.775 3.576 18.3984C4.57131 17.8149 5.60256 17.2992 6.66975 16.8515C7.78711 16.2068 8.58203 15.2829 9.05452 14.0801C9.35062 13.1535 9.56546 12.2081 9.69905 11.2441C10.1213 9.60517 11.174 8.74579 12.8573 8.666ZM51.9158 18.5918C53.1728 18.5553 54.3759 18.7916 55.5252 19.3008C58.7392 21.0108 60.8662 23.6105 61.9061 27.0996C61.9921 27.6581 61.9921 28.2168 61.9061 28.7754C61.6588 29.5716 61.5513 30.3881 61.5838 31.2246C61.7556 32.9433 61.9276 34.6621 62.0994 36.3808C62.0635 38.5298 61.3974 40.4634 60.1014 42.1816C59.4839 43.0142 58.8179 43.8092 58.1033 44.5664C56.4843 45.4056 54.7656 45.7063 52.9471 45.4687C46.7899 44.6997 41.5692 42.1 37.285 37.6699C37.0662 37.3864 36.8729 37.0857 36.7049 36.7676C36.7446 36.6634 36.8091 36.5774 36.8983 36.5098C40.0893 37.212 43.2691 37.1262 46.4373 36.2519C46.7883 36.3861 47.1106 36.5795 47.4041 36.832C49.3448 37.2116 50.2258 36.4167 50.0467 34.4473C49.3507 33.2609 48.3839 32.9816 47.1463 33.6094C46.7235 33.9738 46.3798 34.382 46.1151 34.834C43.1727 35.6765 40.2078 35.784 37.2205 35.1562C37.051 34.9764 37.0941 34.8475 37.3494 34.7695C39.0032 34.5334 40.5716 34.0391 42.0545 33.2871C42.6579 33.7483 43.2809 33.7697 43.9237 33.3515C44.7831 32.4921 44.7831 31.6328 43.9237 30.7734C42.5886 30.1771 41.7507 30.5853 41.41 31.998C39.9559 32.6904 38.4306 33.163 36.8338 33.416C36.6189 33.3731 36.49 33.2442 36.4471 33.0293C40.4551 30.5901 43.8281 27.4534 46.5662 23.6191C47.3343 22.4484 48.0863 21.2667 48.8221 20.0742C49.748 19.3317 50.7793 18.8376 51.9158 18.5918ZM35.9315 19.7519C36.5482 19.7014 36.9349 19.9807 37.0916 20.5898C36.7718 21.3987 36.2776 21.5491 35.6092 21.041C35.5085 20.8826 35.4441 20.7107 35.4158 20.5254C35.536 20.2334 35.7078 19.9756 35.9315 19.7519ZM30.3885 21.4277C31.2688 21.3411 31.6341 21.7278 31.4842 22.5879C30.7861 23.2632 30.249 23.1343 29.8729 22.2012C29.9975 21.906 30.1694 21.6481 30.3885 21.4277ZM17.4979 24.3926C18.2698 24.4137 18.4416 24.736 18.0135 25.3594C17.2276 25.3783 17.0557 25.056 17.4979 24.3926ZM16.7244 31.2246C17.1993 31.4441 17.2209 31.7019 16.7889 31.998C16.389 31.7612 16.3675 31.5034 16.7244 31.2246ZM30.0018 32.1269C31.7478 31.8654 33.3376 32.2307 34.7713 33.2226C35.7745 34.3269 35.882 35.5084 35.0936 36.7676C32.8607 39.5173 30.0032 40.527 26.5213 39.7969C24.2395 38.9947 23.6165 37.5123 24.6522 35.3496C26.0299 33.5974 27.8132 32.5232 30.0018 32.1269ZM4.09163 32.5137C6.05781 34.2709 8.33516 35.4955 10.9237 36.1875C14.7755 37.127 18.6856 37.5997 22.6541 37.6055C22.7731 37.8685 22.816 38.1479 22.783 38.4433C20.9608 38.7744 19.4139 39.6123 18.1424 40.957C16.1468 40.889 15.3948 41.8127 15.8866 43.7285C16.8272 44.8234 17.8584 44.9094 18.9803 43.9863C19.3169 43.3699 19.3813 42.7254 19.1737 42.0527C20.4043 40.6424 21.9512 39.8904 23.8143 39.7969C23.9432 39.9258 24.0721 40.0547 24.201 40.1836C23.1023 41.0265 22.2644 42.0793 21.6873 43.3418C20.7137 43.9679 20.4559 44.8273 20.9139 45.9199C22.0465 47.0057 23.0777 46.9197 24.0076 45.6621C24.2624 44.7275 24.0261 43.9541 23.2987 43.3418C23.8642 42.3036 24.6807 41.5301 25.7479 41.0215C25.9628 41.1074 26.1775 41.1933 26.3924 41.2793C26.545 44.4965 25.5353 47.2894 23.3631 49.6582C22.0827 49.2635 20.7721 49.0916 19.4315 49.1426C17.4953 49.2327 15.5617 49.3616 13.6307 49.5293C11.5269 49.713 9.95851 48.8965 8.92561 47.0801C8.22848 45.4522 7.66989 43.7765 7.24983 42.0527C6.38459 39.319 4.64435 37.3854 2.02913 36.2519C2.50487 34.8777 3.19237 33.6315 4.09163 32.5137ZM48.0487 34.7051C48.5426 34.6651 48.736 34.88 48.6287 35.3496C48.2478 35.7286 47.9685 35.6641 47.7908 35.1562C47.8525 34.9883 47.9384 34.838 48.0487 34.7051ZM1.77132 37.7988C3.67549 38.6509 4.98604 40.0689 5.70296 42.0527C6.15872 43.463 6.5884 44.8809 6.99202 46.3066C7.63293 48.3651 8.94347 49.8045 10.9237 50.625C11.3477 50.7387 11.7774 50.8245 12.2127 50.8828C14.6014 50.891 16.9861 50.7837 19.367 50.5605C20.352 50.5252 21.3188 50.6326 22.2674 50.8828C20.4342 52.766 18.1999 53.7757 15.5643 53.9121C14.9943 53.86 14.4356 53.7526 13.8885 53.5898C13.3105 53.0641 12.666 52.6345 11.9549 52.3008C10.5717 51.8153 9.15373 51.4715 7.701 51.2695C5.88415 50.7846 4.70252 49.6459 4.15608 47.8535C3.76936 46.0917 3.38264 44.3301 2.99593 42.5683C2.64428 41.479 2.25756 40.4048 1.83577 39.3457C1.77147 38.8319 1.74998 38.3162 1.77132 37.7988ZM35.8026 38.1855C38.7753 41.5109 42.3631 43.9601 46.5662 45.5332C46.9573 46.3972 47.0862 47.2996 46.953 48.2402C46.0721 48.9492 45.1912 49.6582 44.3104 50.3672C42.8135 51.4365 41.1377 51.9305 39.283 51.8496C37.7306 51.756 36.1837 51.6057 34.6424 51.3984C31.9761 51.0118 29.4838 51.4845 27.1658 52.8164C26.7603 53.1144 26.3736 53.4367 26.0057 53.7832C25.7412 53.398 25.5907 52.9684 25.5545 52.4941C25.4179 51.2722 25.5039 50.0691 25.8123 48.8848C27.2389 46.6458 27.9479 44.1966 27.9393 41.5371C28.7502 41.5484 29.5452 41.4625 30.3241 41.2793C30.4985 43.5213 31.186 45.5838 32.3866 47.4668C32.5044 48.96 33.2992 49.583 34.7713 49.3359C35.7043 48.8648 36.0266 48.1129 35.7381 47.0801C35.5448 46.7149 35.2654 46.4355 34.9002 46.2422C34.3427 46.0662 33.7842 46.0018 33.2244 46.0488C32.2663 44.4505 31.8366 42.7318 31.9354 40.8926C32.4234 40.713 32.896 40.4982 33.3533 40.248C33.7474 40.9066 34.1126 41.5941 34.4491 42.3105C34.8249 42.9448 35.2975 43.5033 35.867 43.9863C36.06 45.6839 36.9839 46.3069 38.6385 45.8555C39.7891 44.8849 39.8321 43.8537 38.7674 42.7617C38.1137 42.3627 37.4478 42.3412 36.7694 42.6973C36.4753 42.5328 36.2175 42.3179 35.9959 42.0527C35.4839 41.2436 35.0758 40.3842 34.7713 39.4746C35.1074 39.0461 35.451 38.6163 35.8026 38.1855ZM17.2401 42.4394C17.8406 42.3769 18.0125 42.6132 17.7557 43.1484C17.1406 43.2528 16.9687 43.0166 17.2401 42.4394ZM37.6073 43.8574C38.2524 44.0718 38.274 44.3296 37.6717 44.6308C37.2717 44.423 37.2502 44.1652 37.6073 43.8574ZM22.2674 44.6308C22.7129 44.7644 22.756 44.9793 22.3963 45.2754C22.1122 45.1101 22.0692 44.8952 22.2674 44.6308ZM33.9979 47.4668C34.3088 47.4918 34.4377 47.6636 34.3846 47.9824C33.9394 48.0124 33.8105 47.8406 33.9979 47.4668ZM46.7596 50.1738C46.6851 51.9784 45.9546 53.5037 44.5682 54.75C44.2885 54.9544 43.9876 55.1264 43.6658 55.2656C41.6599 55.9252 39.6834 56.6556 37.7362 57.457C35.3087 57.7768 32.9026 57.6479 30.5174 57.0703C29.0716 56.7986 27.8255 56.154 26.7791 55.1367C28.0129 53.8537 29.5168 53.0803 31.2908 52.8164C33.9837 52.8011 36.6692 52.9515 39.3475 53.2676C42.3043 53.3453 44.7751 52.314 46.7596 50.1738Z" fill="white"/>
</svg>
