<svg width="66" height="66" viewBox="0 0 66 66" fill="none" xmlns="http://www.w3.org/2000/svg">
<path opacity="0.932" fill-rule="evenodd" clip-rule="evenodd" d="M24.1349 -0.0644531C28.002 -0.0644531 31.8692 -0.0644531 35.7364 -0.0644531C36.2921 0.21227 36.7004 0.641958 36.961 1.22461C37.0039 2.94336 37.047 4.66211 37.0899 6.38086C37.1568 7.56742 37.6509 8.53421 38.5724 9.28125C42.0745 11.0095 45.383 13.0291 48.4981 15.3398C56.9499 22.7308 60.5808 32.0336 59.3907 43.248C58.5711 49.6112 56.0789 55.1971 51.9142 60.0059C48.616 63.3414 44.6413 65.3181 39.9903 65.9355C33.2872 65.9355 26.5841 65.9355 19.8809 65.9355C14.1038 65.1206 9.48457 62.3705 6.02352 57.6855C5.46528 57.0707 5.44381 56.4477 5.95907 55.8164C6.38875 55.5586 6.81845 55.5586 7.24813 55.8164C10.7561 60.9921 15.6545 63.6992 21.9434 63.9375C27.2715 64.0235 32.5997 64.0235 37.9278 63.9375C44.4714 63.6428 49.4772 60.7424 52.9454 55.2363C55.9288 50.6081 57.4757 45.5378 57.586 40.0254C56.1142 40.4909 54.6318 40.5124 53.1388 40.0898C52.1636 39.6666 51.1753 39.2799 50.1739 38.9297C49.3079 38.8272 48.4486 38.8487 47.5958 38.9941C46.9266 46.5136 43.1453 51.7774 36.252 54.7852C28.3681 57.2553 21.7295 55.3861 16.336 49.1777C14.1321 46.1982 12.9075 42.8466 12.6622 39.123C11.6901 38.8685 10.7019 38.804 9.69735 38.9297C8.69596 39.2799 7.70768 39.6666 6.73251 40.0898C5.23784 40.5259 3.75542 40.5044 2.28524 40.0254C2.26946 42.9816 2.74213 45.8605 3.70321 48.6621C4.25377 50.035 4.79088 51.41 5.31454 52.7871C5.19753 53.6197 4.72488 53.942 3.89657 53.7539C3.71213 53.694 3.56174 53.5865 3.4454 53.4316C-0.974873 43.961 -0.931909 34.5078 3.57431 25.0723C6.0736 20.2091 9.61853 16.2775 14.2091 13.2773C16.4533 11.9367 18.7307 10.6476 21.0411 9.41016C21.8785 8.87477 22.4155 8.12281 22.6524 7.1543C22.6954 5.30664 22.7384 3.45898 22.7813 1.61133C22.9742 0.838992 23.4254 0.280398 24.1349 -0.0644531ZM24.9083 1.86914C28.2599 1.86914 31.6114 1.86914 34.963 1.86914C34.9231 3.80674 34.9876 5.74034 35.1563 7.66992C35.5651 9.28202 36.489 10.5066 37.9278 11.3438C41.2256 12.9275 44.3194 14.818 47.2091 17.0156C53.5528 22.506 56.9903 29.4454 57.5216 37.834C55.5474 38.5682 53.6567 38.3749 51.8497 37.2539C50.3887 36.8 48.9062 36.6926 47.4024 36.9316C46.9728 32.9728 45.4045 29.5568 42.6974 26.6836C41.8385 26.3397 41.2798 26.6189 41.0216 27.5215C41.0987 27.6884 41.1631 27.8603 41.2149 28.0371C45.3591 32.8783 46.3044 38.2924 44.0509 44.2793C40.343 51.9339 34.3059 54.9202 25.9395 53.2383C18.4617 50.6382 14.8309 45.3745 15.047 37.4473C15.7629 31.7505 18.6204 27.5181 23.6192 24.75C28.6375 22.5438 33.4929 22.8445 38.1856 25.6523C39.4762 25.8225 39.9274 25.2855 39.5392 24.041C34.645 21.0193 29.4672 20.4392 24.0059 22.3008C17.5392 25.0487 13.801 29.9042 12.7911 36.8672C11.7649 36.799 10.7336 36.799 9.69735 36.8672C8.52101 37.202 7.36085 37.5887 6.21688 38.0273C4.8991 38.4878 3.61004 38.4233 2.3497 37.834C3.00384 27.9685 7.42962 20.2986 15.627 14.8242C17.8614 13.5781 20.0958 12.332 22.3302 11.0859C23.5839 10.2179 24.3787 9.03626 24.7149 7.54102C24.7385 5.64081 24.803 3.75018 24.9083 1.86914Z" fill="white"/>
</svg>
