<svg width="71" height="48" viewBox="0 0 71 48" fill="none" xmlns="http://www.w3.org/2000/svg">
<path opacity="0.909" fill-rule="evenodd" clip-rule="evenodd" d="M3.79199 0.41491C6.36412 0.389205 8.93574 0.414926 11.5068 0.492059C13.4391 0.932006 14.7506 2.08923 15.4414 3.96374C16.0149 6.56349 16.4521 9.18653 16.7529 11.8329C25.9344 12.387 35.0893 13.21 44.2178 14.3016C44.7834 9.03039 47.5608 5.50732 52.5498 3.73229C57.3886 2.26723 61.8632 2.98729 65.9736 5.89245C70.2307 9.94722 71.2336 14.7047 68.9824 20.1649C66.6612 24.6178 62.9837 26.9836 57.9502 27.2626C58.2011 31.5162 57.9183 35.7338 57.1016 39.9149C56.8288 41.1548 56.083 41.9519 54.8643 42.3065C53.6006 42.6413 52.3148 42.847 51.0068 42.9237C41.4059 43.91 31.7881 44.2186 22.1533 43.8495C22.8867 44.5505 23.7611 44.9618 24.7764 45.0839C34.9651 45.3605 45.1486 45.7719 55.3271 46.3182C56.1182 46.3457 56.8897 46.4744 57.6416 46.704C56.7393 46.9562 55.8135 47.0848 54.8643 47.0897C44.6787 47.3783 34.4951 47.3783 24.3135 47.0897C21.6522 46.589 19.9807 45.0203 19.2988 42.3837C17.4658 30.5297 15.8199 18.6488 14.3613 6.74108C14.2268 5.3604 13.8153 4.0746 13.127 2.88366C12.8279 2.48158 12.4422 2.19871 11.9697 2.03503C8.36259 1.82281 4.76233 1.51421 1.16895 1.10925C0.995516 1.0708 0.841219 0.993647 0.706055 0.877801C0.808924 0.826374 0.911779 0.774931 1.01465 0.723504C1.96396 0.633086 2.88974 0.530232 3.79199 0.41491ZM56.0986 5.04382C60.3282 4.83272 63.7999 6.32433 66.5137 9.51843C67.5569 11.2594 68.1998 13.1365 68.4424 15.1503C67.9693 19.7034 65.7064 22.9952 61.6533 25.0253C56.7703 27.0945 52.63 26.1431 49.2324 22.1708C45.7148 17.734 45.5605 13.208 48.7695 8.59264C50.8075 6.55778 53.2505 5.37488 56.0986 5.04382ZM17.0615 12.4501C26.0831 13.9378 35.1352 15.2236 44.2178 16.3075C44.3948 16.3566 44.5234 16.4593 44.6035 16.6161C45.5895 21.3294 48.3412 24.4667 52.8584 26.0282C52.7149 29.1971 52.3292 32.3346 51.7012 35.4403C51.5549 35.7597 51.3235 35.9911 51.0068 36.1346C40.9627 37.388 30.8819 38.2366 20.7646 38.6805C19.631 29.9228 18.3967 21.1793 17.0615 12.4501ZM55.1729 26.954C55.7632 27.1854 56.3804 27.2882 57.0244 27.2626C57.0494 27.5753 57.0236 27.8839 56.9473 28.1883C56.3477 27.852 55.7047 27.6461 55.0186 27.5712C55.0082 27.346 55.0596 27.1404 55.1729 26.954ZM54.8643 29.7313C55.5162 29.8943 56.159 29.8943 56.793 29.7313C56.884 30.3172 56.8069 30.883 56.5615 31.4286C55.9875 31.0965 55.3703 30.8909 54.71 30.8114C54.8448 30.4647 54.8964 30.1047 54.8643 29.7313ZM54.4014 33.1258C54.9877 33.3794 55.6049 33.4823 56.2529 33.4344C56.1582 34.4147 56.0297 35.3918 55.8672 36.3661C55.2201 36.0211 54.5771 35.6611 53.9385 35.286C54.2394 34.5966 54.3937 33.8767 54.4014 33.1258ZM53.0127 37.1376C53.7302 37.7011 54.5532 38.0097 55.4814 38.0633C55.4068 39.8873 54.481 40.6074 52.7041 40.2235C52.5176 39.3945 52.1062 38.7001 51.4697 38.1405C52.1209 37.9962 52.6351 37.662 53.0127 37.1376ZM43.9092 38.6805C44.0905 38.6467 44.2448 38.6981 44.3721 38.8348C44.5173 39.6062 44.8259 40.3005 45.2979 40.9178C44.3204 41.0661 43.3431 41.1946 42.3662 41.3036C42.1704 40.5619 41.9132 39.8418 41.5947 39.1434C42.3846 38.9756 43.1561 38.8213 43.9092 38.6805ZM47.6123 38.6805C48.2317 38.6549 48.8488 38.6807 49.4639 38.7577C49.785 39.4002 50.1449 40.0174 50.5439 40.6092C49.4711 40.7888 48.391 40.9174 47.3037 40.995C47.2176 40.2909 47.0119 39.6224 46.6865 38.9891C47.0153 38.8859 47.3239 38.7831 47.6123 38.6805ZM36.8115 39.1434C37.7373 39.1434 38.6631 39.1434 39.5889 39.1434C39.5767 39.9293 39.7824 40.6494 40.2061 41.3036C38.9979 41.6014 37.7892 41.6529 36.5801 41.4579C36.4716 40.6497 36.1372 39.9553 35.5771 39.3749C36.0192 39.3466 36.4306 39.2695 36.8115 39.1434ZM21.0732 39.452C23.1399 39.5073 25.1973 39.6359 27.2451 39.8378C27.3687 40.805 27.7802 41.6279 28.4795 42.3065C26.3218 42.568 24.1616 42.7739 21.999 42.9237C21.423 41.8385 21.1144 40.6813 21.0732 39.452ZM30.9482 39.452C31.874 39.452 32.7998 39.452 33.7256 39.452C33.7639 40.2476 33.9181 41.0191 34.1885 41.7665C32.7589 42.0079 31.3189 42.1107 29.8682 42.0751C29.8603 41.2212 29.706 40.3983 29.4053 39.6063C29.9518 39.6546 30.4661 39.6031 30.9482 39.452Z" fill="#5B6A4D"/>
</svg>
