<svg width="41" height="41" viewBox="0 0 41 41" fill="none" xmlns="http://www.w3.org/2000/svg">
<path opacity="0.983" fill-rule="evenodd" clip-rule="evenodd" d="M8.26999 3.96805C16.4952 3.95495 24.7204 3.96805 32.9455 4.00734C35.84 4.59672 37.582 6.33868 38.1714 9.23321C38.2238 14.1055 38.2238 18.9777 38.1714 23.8499C37.582 26.7444 35.84 28.4864 32.9455 29.0758C29.776 29.102 26.6064 29.1282 23.4368 29.1544C22.6649 29.2022 21.9576 29.4379 21.315 29.8617C18.4215 32.0811 15.5138 34.2815 12.5921 36.4628C11.7268 36.8839 11.0588 36.6874 10.5882 35.8734C10.5621 34.0398 10.5358 32.2061 10.5096 30.3725C10.5058 29.8268 10.257 29.447 9.7631 29.233C6.72387 29.228 4.58899 27.8527 3.35845 25.1073C3.22904 24.6944 3.12426 24.2753 3.04412 23.8499C2.99172 18.9777 2.99172 14.1055 3.04412 9.23321C3.64765 6.33765 5.38961 4.58259 8.26999 3.96805ZM9.29159 6.48275C16.8358 6.46965 24.3799 6.48275 31.9239 6.52205C34.216 6.71851 35.4603 7.96276 35.6567 10.2548C35.7091 14.446 35.7091 18.6372 35.6567 22.8283C35.5414 24.7499 34.559 25.968 32.7098 26.4825C29.3323 26.5829 25.9532 26.6353 22.5724 26.6397C21.5209 26.8383 20.5517 27.2312 19.6648 27.8185C17.4775 29.4819 15.2902 31.1452 13.1029 32.8086C13.0768 31.7346 13.0505 30.6606 13.0244 29.5866C12.6707 27.9756 11.6884 26.9933 10.0774 26.6397C8.47533 26.7483 7.17872 26.1851 6.1875 24.9501C5.93853 24.531 5.75517 24.0856 5.63741 23.6142C5.549 21.2584 5.50971 18.9008 5.51953 16.5416C5.50971 14.1823 5.549 11.8248 5.63741 9.46897C6.16979 7.62564 7.38785 6.63024 9.29159 6.48275Z" fill="white"/>
<path opacity="0.994" fill-rule="evenodd" clip-rule="evenodd" d="M11.3348 11.5122C17.5168 11.4991 23.6988 11.5122 29.8808 11.5515C30.4389 11.7577 30.7009 12.1637 30.6666 12.7695C30.7009 13.3753 30.4389 13.7814 29.8808 13.9876C23.6987 14.04 17.5168 14.04 11.3348 13.9876C10.7578 13.7753 10.4958 13.3562 10.549 12.7302C10.5469 12.1431 10.8088 11.7371 11.3348 11.5122Z" fill="white"/>
<path opacity="0.994" fill-rule="evenodd" clip-rule="evenodd" d="M11.3348 19.0563C17.5168 19.0432 23.6988 19.0563 29.8808 19.0956C30.4389 19.3018 30.7009 19.7079 30.6666 20.3137C30.7009 20.9195 30.4389 21.3255 29.8808 21.5317C23.6987 21.5841 17.5168 21.5841 11.3348 21.5317C10.7578 21.3194 10.4958 20.9003 10.549 20.2744C10.5469 19.6872 10.8088 19.2812 11.3348 19.0563Z" fill="white"/>
</svg>
