<svg width="33" height="32" viewBox="0 0 33 32" fill="none" xmlns="http://www.w3.org/2000/svg">
<path opacity="0.997" fill-rule="evenodd" clip-rule="evenodd" d="M15.0625 0C16.0208 0 16.9792 0 17.9375 0C23.5402 0.680494 27.759 3.45133 30.5938 8.3125C31.6372 10.2794 32.2726 12.3628 32.5 14.5625C32.5 15.5208 32.5 16.4792 32.5 17.4375C31.8195 23.0402 29.0487 27.259 24.1875 30.0938C22.2206 31.1372 20.1372 31.7726 17.9375 32C16.9792 32 16.0208 32 15.0625 32C9.45975 31.3195 5.24101 28.5487 2.40625 23.6875C1.36283 21.7206 0.727413 19.6372 0.5 17.4375C0.5 16.4792 0.5 15.5208 0.5 14.5625C1.18047 8.95981 3.9513 4.74108 8.8125 1.90625C10.7794 0.862831 12.8628 0.227413 15.0625 0Z" fill="#039BE5"/>
<path fill-rule="evenodd" clip-rule="evenodd" d="M23.1603 9.33331C23.9959 9.36215 24.3135 9.80281 24.113 10.6553C23.238 15.0104 22.3159 19.3541 21.3469 23.6864C20.9917 24.043 20.5922 24.0954 20.1483 23.8438C18.8431 22.824 17.5215 21.8273 16.1835 20.8536C15.4784 21.5127 14.7921 22.1947 14.1243 22.8995C13.9407 23.0306 13.7358 23.1041 13.5096 23.1199C13.5996 21.7559 13.6918 20.392 13.7862 19.028C16.2634 16.7639 18.7221 14.4767 21.1625 12.1662C21.1839 12.0136 21.1122 11.9507 20.9474 11.9773C20.792 11.9939 20.6486 12.0463 20.5171 12.1347C17.5666 14.0442 14.6161 15.9538 11.6656 17.8633C11.5631 17.9053 11.4607 17.9053 11.3582 17.8633C10.1084 17.4647 8.85845 17.0659 7.6086 16.6673C6.99207 16.4503 6.91013 16.1145 7.36273 15.66C7.72128 15.4677 8.09009 15.2998 8.46917 15.1564C13.3844 13.2445 18.2814 11.3035 23.1603 9.33331Z" fill="#FEFEFE"/>
</svg>
