<svg width="32" height="32" viewBox="0 0 32 32" fill="none" xmlns="http://www.w3.org/2000/svg">
<rect width="32" height="32" rx="16" fill="#1AC70F"/>
<path fill-rule="evenodd" clip-rule="evenodd" d="M23.7545 8.25262C21.6957 6.19378 18.96 5.0575 16.0463 5.0575C10.0408 5.0575 5.15011 9.94458 5.15011 15.9501C5.14655 17.8701 5.64879 19.7437 6.60341 21.3964L5.0575 27.0422L10.8351 25.5248C12.4237 26.3939 14.219 26.8499 16.0427 26.8534H16.0463C22.0519 26.8534 26.9389 21.9664 26.9425 15.9573C26.9425 13.0471 25.8098 10.3115 23.7545 8.25262ZM16.0463 25.0119H16.0427C14.4185 25.0119 12.8227 24.5738 11.4335 23.7509L11.1022 23.555L7.67201 24.4527L8.58745 21.1115L8.37373 20.7695C7.46542 19.3269 6.98811 17.6599 6.98811 15.9501C6.98811 10.9597 11.0524 6.89905 16.0499 6.89905C18.4685 6.89905 20.741 7.84299 22.4508 9.55275C24.1606 11.2661 25.1009 13.5386 25.1009 15.9573C25.1009 20.9512 21.0367 25.0119 16.0463 25.0119ZM21.0117 18.2298C20.741 18.0945 19.4017 17.4355 19.1524 17.3464C18.903 17.2538 18.7214 17.2111 18.5397 17.4818C18.358 17.7561 17.838 18.3687 17.6777 18.5504C17.521 18.7285 17.3607 18.7534 17.09 18.6181C16.8157 18.4827 15.9394 18.1942 14.8993 17.2645C14.0908 16.545 13.5422 15.6509 13.3855 15.3802C13.2252 15.1059 13.3677 14.9599 13.503 14.8245C13.6277 14.7034 13.7773 14.5075 13.9127 14.3472C14.048 14.1905 14.0943 14.0765 14.1869 13.8948C14.276 13.7132 14.2297 13.5529 14.162 13.4175C14.0943 13.2822 13.5493 11.9393 13.3214 11.3943C13.1005 10.8636 12.8761 10.9384 12.7087 10.9277C12.552 10.9206 12.3703 10.9206 12.1886 10.9206C12.007 10.9206 11.7113 10.9882 11.462 11.2625C11.2127 11.5332 10.5109 12.1922 10.5109 13.5315C10.5109 14.8708 11.4869 16.1674 11.6223 16.3491C11.7576 16.5272 13.5422 19.277 16.2743 20.4561C16.9226 20.7375 17.4284 20.9049 17.8237 21.0296C18.4756 21.2362 19.0704 21.2077 19.5406 21.14C20.0642 21.0616 21.1507 20.481 21.3786 19.8434C21.603 19.2094 21.603 18.6644 21.5354 18.5504C21.4677 18.4364 21.286 18.3687 21.0117 18.2298Z" fill="white"/>
</svg>
