<svg width="135" height="134" viewBox="0 0 135 134" fill="none" xmlns="http://www.w3.org/2000/svg">
<path d="M103.088 67.0002C103.071 61.3973 102.471 55.8118 101.297 50.3336H116.297C115.524 48.0483 114.591 45.8207 113.505 43.6669H99.5467C96.9226 34.9004 92.8527 26.6338 87.5049 19.2086C84.0881 17.7718 80.5257 16.71 76.88 16.0417C84.2063 23.9137 89.7364 33.282 93.0884 43.5H70.6299V15.3335H64.38V43.5418H41.9215C45.2803 33.3053 50.825 23.9218 58.1716 16.0417C54.5416 16.699 50.993 17.7466 47.5883 19.1668C42.2194 26.5611 38.1214 34.7991 35.4632 43.5418H21.4216C20.3157 45.7348 19.3687 48.0047 18.5882 50.3336H33.7133C32.5396 55.8118 31.9391 61.3973 31.9216 67.0002C31.9331 73.1283 32.6319 79.236 34.005 85.2086H19.2549C20.117 87.544 21.1474 89.8138 22.3382 92.0001H35.7967C38.3476 99.9827 42.1292 107.518 47.0049 114.333C50.4964 115.831 54.144 116.935 57.8799 117.625C51.0796 110.208 45.8497 101.491 42.5049 92.0001H64.4215V118.417H70.6717V92.0001H92.505C89.1487 101.495 83.9044 110.212 77.0882 117.625C80.8417 116.911 84.5035 115.779 88.005 114.25C92.873 107.46 96.6544 99.9536 99.2132 92.0001H112.547C113.732 89.8542 114.762 87.6263 115.63 85.3334H100.838C102.277 79.3267 103.032 73.1765 103.088 67.0002ZM64.38 85.2086H40.4633C37.5297 73.7412 37.4012 61.7361 40.0883 50.2085H64.38V85.2086ZM94.5466 85.2086H70.6299V50.3336H94.9216C96.1186 55.8074 96.7054 61.3969 96.6715 67.0002C96.7054 73.1333 95.9919 79.2478 94.5466 85.2086Z" fill="#779243"/>
<path d="M67.5055 0.333496C54.32 0.333496 41.4309 4.24344 30.4675 11.5689C19.5043 18.8943 10.9594 29.3062 5.9136 41.488C0.867762 53.6696 -0.452469 67.0741 2.11987 80.0061C4.69223 92.9382 11.0416 104.817 20.3651 114.141C29.6886 123.464 41.5675 129.814 54.4996 132.386C67.4316 134.958 80.8361 133.638 93.0177 128.592C105.2 123.546 115.611 115.001 122.937 104.038C130.262 93.0748 134.172 80.1857 134.172 67.0002C134.172 49.3192 127.148 32.3622 114.646 19.8596C102.143 7.3573 85.1866 0.333496 67.5055 0.333496ZM67.5055 125.333C55.9684 125.333 44.6903 121.912 35.0972 115.503C25.5043 109.093 18.0276 99.9825 13.6126 89.3235C9.19747 78.6645 8.04228 66.9354 10.2931 55.6198C12.5439 44.3043 18.0996 33.9102 26.2576 25.7523C34.4157 17.5942 44.8098 12.0385 56.1253 9.78769C67.4409 7.53689 79.1697 8.69209 89.8287 13.1072C100.488 17.5224 109.598 24.9991 116.008 34.5919C122.418 44.1848 125.839 55.4629 125.839 67.0002C125.839 82.4712 119.693 97.3085 108.753 108.248C97.8138 119.188 82.9765 125.333 67.5055 125.333Z" fill="#779243"/>
</svg>
