<svg width="151" height="150" viewBox="0 0 151 150" fill="none" xmlns="http://www.w3.org/2000/svg">
<g clip-path="url(#clip0_9_189)">
<path opacity="0.982" fill-rule="evenodd" clip-rule="evenodd" d="M150.354 40.2834C150.354 41.5529 150.354 42.8226 150.354 44.092C149.045 55.1539 143.576 63.5035 133.947 69.1409C123.818 74.3495 113.369 75.082 102.6 71.3381C97.8148 73.7065 92.9809 75.9524 88.0977 78.0764C87.0022 77.9577 86.6114 77.3718 86.9258 76.3186C88.5972 72.5369 90.3061 68.7773 92.0527 65.0393C81.6503 55.3136 78.8671 43.7413 83.7031 30.3225C88.9147 19.8746 97.2644 13.4781 108.752 11.133C122.17 8.86748 133.547 12.6272 142.883 22.4123C147.156 27.6364 149.646 33.5935 150.354 40.2834ZM115.49 21.2405C124.37 21.2753 127.837 25.5722 125.891 34.1311C124.165 37.0285 122.212 39.7628 120.031 42.3342C118.337 44.9264 117.702 47.7585 118.127 50.8303C116.662 50.8303 115.197 50.8303 113.732 50.8303C112.988 47.4864 113.525 44.3613 115.344 41.4553C117.215 39.0957 118.973 36.6541 120.617 34.1311C122.561 27.4791 120.071 24.5982 113.146 25.4885C111.898 25.7255 110.727 26.1649 109.631 26.8069C107.631 24.4562 108.119 22.9425 111.096 22.2659C112.589 21.8675 114.054 21.5257 115.49 21.2405ZM114.904 55.8108C117.482 55.5067 119.045 56.6296 119.592 59.1799C118.62 63.0134 116.52 63.8434 113.293 61.6701C111.943 59.1524 112.48 57.1992 114.904 55.8108Z" fill="#779243"/>
<path opacity="0.904" fill-rule="evenodd" clip-rule="evenodd" d="M49.2793 23.8767C50.9469 23.5135 52.0701 24.0994 52.6484 25.6345C52.8439 28.0759 52.8439 30.5174 52.6484 32.9588C51.7783 34.6776 50.46 35.1171 48.6934 34.2771C48.3415 34.0126 48.0972 33.671 47.9609 33.2517C47.7655 30.615 47.7655 27.9783 47.9609 25.3416C48.2612 24.7008 48.7007 24.2126 49.2793 23.8767Z" fill="#779243"/>
<path opacity="0.904" fill-rule="evenodd" clip-rule="evenodd" d="M30.2363 28.5645C31.3151 28.591 32.2429 28.9816 33.0195 29.7363C34.0197 31.6397 35.0941 33.4951 36.2422 35.3027C36.5457 38.4176 35.2274 39.443 32.2871 38.3789C30.8589 36.3533 29.5405 34.2536 28.332 32.0801C28.0068 30.3598 28.6416 29.1878 30.2363 28.5645Z" fill="#779243"/>
<path opacity="0.905" fill-rule="evenodd" clip-rule="evenodd" d="M69.2012 28.5645C71.8112 28.806 72.7388 30.1731 71.9844 32.666C70.8734 34.645 69.6526 36.5493 68.3223 38.3789C65.382 39.443 64.0637 38.4176 64.3672 35.3027C65.4415 33.4474 66.5155 31.5917 67.5898 29.7363C68.0293 29.1596 68.5663 28.7689 69.2012 28.5645Z" fill="#779243"/>
<path opacity="0.9" fill-rule="evenodd" clip-rule="evenodd" d="M15.8808 42.9199C19.0247 43.6646 21.8079 45.1295 24.2305 47.3145C24.8222 50.1401 23.6992 51.3609 20.8613 50.9766C19.0059 49.9022 17.1504 48.8282 15.2949 47.7539C13.6777 45.927 13.873 44.3156 15.8808 42.9199Z" fill="#779243"/>
<path opacity="0.986" fill-rule="evenodd" clip-rule="evenodd" d="M46.0566 44.3847C64.5728 43.2243 72.9224 51.9158 71.1055 70.459C70.3045 80.6883 66.4473 89.526 59.5332 96.9726C53.9108 101.898 48.0515 102.191 41.9551 97.8515C34.9745 91.0681 30.824 82.8164 29.5039 73.0957C28.7842 67.9781 28.9796 62.9001 30.0898 57.8613C32.5599 49.9649 37.8819 45.4725 46.0566 44.3847Z" fill="#779243"/>
<path opacity="0.906" fill-rule="evenodd" clip-rule="evenodd" d="M10.6074 62.549C13.2459 62.5004 15.8827 62.549 18.5176 62.6955C20.0218 63.7206 20.3148 65.0389 19.3965 66.6506C19.0551 66.9681 18.6645 67.2122 18.2246 67.383C15.6855 67.5784 13.1465 67.5784 10.6074 67.383C9.07298 66.4238 8.73118 65.1054 9.58202 63.4279C9.91749 63.0951 10.2593 62.8021 10.6074 62.549Z" fill="#779243"/>
<path opacity="0.908" fill-rule="evenodd" clip-rule="evenodd" d="M20.8613 78.9553C23.9736 78.7932 24.999 80.1605 23.9375 83.0568C22.0577 84.4613 20.0557 85.6821 17.9317 86.7189C14.8918 87.2231 13.7687 86.0023 14.5625 83.0568C16.5562 81.5003 18.6558 80.133 20.8613 78.9553Z" fill="#779243"/>
<path opacity="0.929" fill-rule="evenodd" clip-rule="evenodd" d="M61.291 101.221C63.2747 102.164 65.2276 103.189 67.1504 104.297C61.8263 108.132 56.0645 111.208 49.8652 113.525C44.041 111.298 38.6697 108.32 33.752 104.59C35.5871 103.6 37.3938 102.574 39.1719 101.514C44.6044 105.598 50.5124 106.428 56.8965 104.004C58.4794 103.215 59.9442 102.288 61.291 101.221Z" fill="#779243"/>
<path opacity="0.98" fill-rule="evenodd" clip-rule="evenodd" d="M0.353516 139.307C0.353516 138.428 0.353516 137.549 0.353516 136.67C1.28601 130.114 3.58095 124.06 7.23828 118.506C9.1845 116.094 11.5771 114.287 14.416 113.086C19.5121 111.485 24.4438 109.483 29.2109 107.08C35.4547 111.864 42.2908 115.673 49.7188 118.506C57.6386 115.767 64.9628 111.959 71.6914 107.08C77.3829 109.853 83.1934 112.343 89.123 114.551C93.7692 118.125 96.8454 122.764 98.3516 128.467C99.4587 131.999 100.093 135.613 100.256 139.307C66.955 139.307 33.6544 139.307 0.353516 139.307Z" fill="#779243"/>
</g>
<defs>
<clipPath id="clip0_9_189">
<rect width="150" height="150" fill="white" transform="translate(0.5)"/>
</clipPath>
</defs>
</svg>
