<svg width="150" height="150" viewBox="0 0 150 150" fill="none" xmlns="http://www.w3.org/2000/svg">
<mask id="path-1-inside-1_9_167" fill="white">
<path d="M135.885 79.6698C132.46 77.8302 127.859 76.2736 122.083 75C127.859 73.7264 132.46 72.1698 135.885 70.3302C139.021 68.8369 141.796 66.7718 144.041 64.2601C146.286 61.7483 147.956 58.8421 148.948 55.7175C149.94 52.5929 150.235 49.315 149.814 46.0823C149.393 42.8496 148.265 39.7294 146.498 36.9108C144.732 34.0921 142.364 31.6336 139.538 29.6843C136.711 27.7349 133.485 26.3352 130.055 25.57C126.626 24.8048 123.063 24.69 119.584 25.2326C116.104 25.7751 112.78 26.9637 109.814 28.7264C106.363 30.4953 102.605 33.3962 98.5414 37.3585C100.228 32.1226 101.072 27.6651 101.072 24.0566C101.072 17.6764 98.325 11.5575 93.4356 7.04602C88.5462 2.53453 81.9147 0 75 0C68.0853 0 61.4538 2.53453 56.5644 7.04602C51.675 11.5575 48.9281 17.6764 48.9281 24.0566C48.9281 27.6651 49.7716 32.1226 51.4586 37.3585C47.3945 33.3962 43.6371 30.4953 40.1864 28.7264C37.2195 26.9637 33.8957 25.7751 30.4163 25.2326C26.937 24.69 23.3744 24.8048 19.9445 25.57C16.5147 26.3352 13.2888 27.7349 10.4624 29.6843C7.63606 31.6336 5.26796 34.0921 3.50159 36.9108C1.73521 39.7294 0.607332 42.8496 0.186274 46.0823C-0.234784 49.315 0.0597406 52.5929 1.05201 55.7175C2.04427 58.8421 3.71363 61.7483 5.95895 64.2601C8.20427 66.7718 10.9788 68.8369 14.1145 70.3302C17.5908 72.1698 22.1917 73.7264 27.9173 75C22.1917 76.2736 17.5908 77.8302 14.1145 79.6698C9.15552 82.3277 5.28461 86.4201 3.1013 91.3132C0.917989 96.2064 0.544097 101.627 2.03753 106.736C3.53096 111.845 6.80838 116.358 11.3622 119.574C15.9161 122.79 21.4922 124.532 27.2271 124.528C31.7843 124.53 36.2588 123.406 40.1864 121.274C43.6371 119.505 47.3945 116.604 51.4586 112.642C49.7716 117.877 48.9281 122.335 48.9281 125.943C48.9281 132.324 51.675 138.442 56.5644 142.954C61.4538 147.465 68.0853 150 75 150C81.9147 150 88.5462 147.465 93.4356 142.954C98.325 138.442 101.072 132.324 101.072 125.943C101.072 122.335 100.228 117.877 98.5414 112.642C102.605 116.604 106.363 119.505 109.814 121.274C113.741 123.406 118.216 124.53 122.773 124.528C128.508 124.532 134.084 122.79 138.638 119.574C143.192 116.358 146.469 111.845 147.962 106.736C149.456 101.627 149.082 96.2064 146.899 91.3132C144.715 86.4201 140.844 82.3277 135.885 79.6698ZM58.13 75C58.13 71.9213 59.1194 68.9118 60.9731 66.352C62.8268 63.7922 65.4615 61.797 68.5441 60.6189C71.6267 59.4407 75.0187 59.1324 78.2912 59.7331C81.5636 60.3337 84.5696 61.8162 86.9289 63.9931C89.2882 66.1701 90.8949 68.9437 91.5459 71.9632C92.1968 74.9827 91.8627 78.1125 90.5859 80.9569C89.309 83.8012 87.1467 86.2323 84.3725 87.9427C81.5982 89.6531 78.3366 90.566 75 90.566C70.532 90.5474 66.2528 88.9015 63.0934 85.9863C59.934 83.0711 58.1501 79.1226 58.13 75ZM114.415 36.0142C118.299 33.95 122.913 33.3941 127.242 34.4689C131.57 35.5437 135.259 38.1611 137.496 41.7453C139.733 45.3295 140.335 49.5868 139.17 53.5808C138.006 57.5748 135.169 60.9783 131.285 63.0425C125.61 66.0142 114.951 68.2783 100.382 69.5519C99.2226 64.908 96.5777 60.6926 92.7902 57.4528C101.302 46.4151 108.74 39.0566 114.415 36.0142ZM75 8.49057C79.468 8.50918 83.7472 10.1551 86.9066 13.0703C90.066 15.9855 91.8499 19.934 91.87 24.0566C91.87 30.0708 88.6494 39.6934 82.5915 52.0047C77.6468 50.5887 72.3532 50.5887 67.4085 52.0047C61.3506 39.6934 58.13 30.0708 58.13 24.0566C58.1501 19.934 59.934 15.9855 63.0934 13.0703C66.2528 10.1551 70.532 8.50918 75 8.49057ZM12.5809 41.7453C14.8261 38.1886 18.5006 35.5921 22.8072 34.5192C27.1139 33.4463 31.7053 33.9835 35.5855 36.0142C41.2599 39.0566 48.6981 46.4151 57.2098 57.4528C53.4222 60.6926 50.7774 64.908 49.6183 69.5519C35.0487 68.2783 24.3899 66.0142 18.7154 63.0425C16.7954 62.0173 15.1133 60.6527 13.7655 59.027C12.4177 57.4012 11.4307 55.5461 10.8609 53.5679C10.2911 51.5897 10.1497 49.5272 10.4448 47.4985C10.74 45.4698 11.4658 43.5148 12.5809 41.7453ZM35.5855 113.986C31.701 116.05 27.087 116.606 22.7585 115.531C18.4299 114.456 14.7413 111.839 12.5042 108.255C10.2671 104.671 9.66471 100.413 10.8295 96.4192C11.9944 92.4252 14.831 89.0217 18.7154 86.9575C24.3899 83.9858 35.0487 81.7217 49.6183 80.4481C50.7774 85.092 53.4222 89.3074 57.2098 92.5472C48.6981 103.585 41.2599 110.943 35.5855 113.986ZM75 141.509C70.532 141.491 66.2528 139.845 63.0934 136.93C59.934 134.015 58.1501 130.066 58.13 125.943C58.13 119.929 61.3506 110.307 67.4085 97.9953C72.3532 99.4113 77.6468 99.4113 82.5915 97.9953C88.6494 110.307 91.87 119.929 91.87 125.943C91.8499 130.066 90.066 134.015 86.9066 136.93C83.7472 139.845 79.468 141.491 75 141.509ZM137.419 108.255C135.174 111.811 131.499 114.408 127.193 115.481C122.886 116.554 118.295 116.017 114.415 113.986C108.74 110.943 101.302 103.585 92.7902 92.5472C96.5777 89.3074 99.2226 85.092 100.382 80.4481C114.951 81.7217 125.61 83.9858 131.285 86.9575C133.205 87.9827 134.887 89.3473 136.234 90.9731C137.582 92.5988 138.569 94.4539 139.139 96.4321C139.709 98.4103 139.85 100.473 139.555 102.501C139.26 104.53 138.534 106.485 137.419 108.255Z"/>
</mask>
<path d="M135.885 79.6698C132.46 77.8302 127.859 76.2736 122.083 75C127.859 73.7264 132.46 72.1698 135.885 70.3302C139.021 68.8369 141.796 66.7718 144.041 64.2601C146.286 61.7483 147.956 58.8421 148.948 55.7175C149.94 52.5929 150.235 49.315 149.814 46.0823C149.393 42.8496 148.265 39.7294 146.498 36.9108C144.732 34.0921 142.364 31.6336 139.538 29.6843C136.711 27.7349 133.485 26.3352 130.055 25.57C126.626 24.8048 123.063 24.69 119.584 25.2326C116.104 25.7751 112.78 26.9637 109.814 28.7264C106.363 30.4953 102.605 33.3962 98.5414 37.3585C100.228 32.1226 101.072 27.6651 101.072 24.0566C101.072 17.6764 98.325 11.5575 93.4356 7.04602C88.5462 2.53453 81.9147 0 75 0C68.0853 0 61.4538 2.53453 56.5644 7.04602C51.675 11.5575 48.9281 17.6764 48.9281 24.0566C48.9281 27.6651 49.7716 32.1226 51.4586 37.3585C47.3945 33.3962 43.6371 30.4953 40.1864 28.7264C37.2195 26.9637 33.8957 25.7751 30.4163 25.2326C26.937 24.69 23.3744 24.8048 19.9445 25.57C16.5147 26.3352 13.2888 27.7349 10.4624 29.6843C7.63606 31.6336 5.26796 34.0921 3.50159 36.9108C1.73521 39.7294 0.607332 42.8496 0.186274 46.0823C-0.234784 49.315 0.0597406 52.5929 1.05201 55.7175C2.04427 58.8421 3.71363 61.7483 5.95895 64.2601C8.20427 66.7718 10.9788 68.8369 14.1145 70.3302C17.5908 72.1698 22.1917 73.7264 27.9173 75C22.1917 76.2736 17.5908 77.8302 14.1145 79.6698C9.15552 82.3277 5.28461 86.4201 3.1013 91.3132C0.917989 96.2064 0.544097 101.627 2.03753 106.736C3.53096 111.845 6.80838 116.358 11.3622 119.574C15.9161 122.79 21.4922 124.532 27.2271 124.528C31.7843 124.53 36.2588 123.406 40.1864 121.274C43.6371 119.505 47.3945 116.604 51.4586 112.642C49.7716 117.877 48.9281 122.335 48.9281 125.943C48.9281 132.324 51.675 138.442 56.5644 142.954C61.4538 147.465 68.0853 150 75 150C81.9147 150 88.5462 147.465 93.4356 142.954C98.325 138.442 101.072 132.324 101.072 125.943C101.072 122.335 100.228 117.877 98.5414 112.642C102.605 116.604 106.363 119.505 109.814 121.274C113.741 123.406 118.216 124.53 122.773 124.528C128.508 124.532 134.084 122.79 138.638 119.574C143.192 116.358 146.469 111.845 147.962 106.736C149.456 101.627 149.082 96.2064 146.899 91.3132C144.715 86.4201 140.844 82.3277 135.885 79.6698ZM58.13 75C58.13 71.9213 59.1194 68.9118 60.9731 66.352C62.8268 63.7922 65.4615 61.797 68.5441 60.6189C71.6267 59.4407 75.0187 59.1324 78.2912 59.7331C81.5636 60.3337 84.5696 61.8162 86.9289 63.9931C89.2882 66.1701 90.8949 68.9437 91.5459 71.9632C92.1968 74.9827 91.8627 78.1125 90.5859 80.9569C89.309 83.8012 87.1467 86.2323 84.3725 87.9427C81.5982 89.6531 78.3366 90.566 75 90.566C70.532 90.5474 66.2528 88.9015 63.0934 85.9863C59.934 83.0711 58.1501 79.1226 58.13 75ZM114.415 36.0142C118.299 33.95 122.913 33.3941 127.242 34.4689C131.57 35.5437 135.259 38.1611 137.496 41.7453C139.733 45.3295 140.335 49.5868 139.17 53.5808C138.006 57.5748 135.169 60.9783 131.285 63.0425C125.61 66.0142 114.951 68.2783 100.382 69.5519C99.2226 64.908 96.5777 60.6926 92.7902 57.4528C101.302 46.4151 108.74 39.0566 114.415 36.0142ZM75 8.49057C79.468 8.50918 83.7472 10.1551 86.9066 13.0703C90.066 15.9855 91.8499 19.934 91.87 24.0566C91.87 30.0708 88.6494 39.6934 82.5915 52.0047C77.6468 50.5887 72.3532 50.5887 67.4085 52.0047C61.3506 39.6934 58.13 30.0708 58.13 24.0566C58.1501 19.934 59.934 15.9855 63.0934 13.0703C66.2528 10.1551 70.532 8.50918 75 8.49057ZM12.5809 41.7453C14.8261 38.1886 18.5006 35.5921 22.8072 34.5192C27.1139 33.4463 31.7053 33.9835 35.5855 36.0142C41.2599 39.0566 48.6981 46.4151 57.2098 57.4528C53.4222 60.6926 50.7774 64.908 49.6183 69.5519C35.0487 68.2783 24.3899 66.0142 18.7154 63.0425C16.7954 62.0173 15.1133 60.6527 13.7655 59.027C12.4177 57.4012 11.4307 55.5461 10.8609 53.5679C10.2911 51.5897 10.1497 49.5272 10.4448 47.4985C10.74 45.4698 11.4658 43.5148 12.5809 41.7453ZM35.5855 113.986C31.701 116.05 27.087 116.606 22.7585 115.531C18.4299 114.456 14.7413 111.839 12.5042 108.255C10.2671 104.671 9.66471 100.413 10.8295 96.4192C11.9944 92.4252 14.831 89.0217 18.7154 86.9575C24.3899 83.9858 35.0487 81.7217 49.6183 80.4481C50.7774 85.092 53.4222 89.3074 57.2098 92.5472C48.6981 103.585 41.2599 110.943 35.5855 113.986ZM75 141.509C70.532 141.491 66.2528 139.845 63.0934 136.93C59.934 134.015 58.1501 130.066 58.13 125.943C58.13 119.929 61.3506 110.307 67.4085 97.9953C72.3532 99.4113 77.6468 99.4113 82.5915 97.9953C88.6494 110.307 91.87 119.929 91.87 125.943C91.8499 130.066 90.066 134.015 86.9066 136.93C83.7472 139.845 79.468 141.491 75 141.509ZM137.419 108.255C135.174 111.811 131.499 114.408 127.193 115.481C122.886 116.554 118.295 116.017 114.415 113.986C108.74 110.943 101.302 103.585 92.7902 92.5472C96.5777 89.3074 99.2226 85.092 100.382 80.4481C114.951 81.7217 125.61 83.9858 131.285 86.9575C133.205 87.9827 134.887 89.3473 136.234 90.9731C137.582 92.5988 138.569 94.4539 139.139 96.4321C139.709 98.4103 139.85 100.473 139.555 102.501C139.26 104.53 138.534 106.485 137.419 108.255Z" fill="#779243" stroke="#779243" stroke-width="4" mask="url(#path-1-inside-1_9_167)"/>
</svg>
