<svg width="150" height="150" viewBox="0 0 150 150" fill="none" xmlns="http://www.w3.org/2000/svg">
<path d="M19.2923 75.0002H74.69V84.2332H19.2923V75.0002ZM10.0593 51.918H56.2241V61.1507H10.0593V51.918Z" fill="#779243"/>
<path d="M138.945 77.7977L125.095 45.4825C124.74 44.6518 124.148 43.9439 123.394 43.4466C122.64 42.9493 121.756 42.6843 120.853 42.6848H107.003V33.452C107.003 32.2275 106.517 31.0534 105.651 30.1875C104.786 29.3218 103.611 28.8354 102.387 28.8354H28.5233V38.0684H97.7704V96.0329C95.667 97.2543 93.8258 98.8802 92.3538 100.817C90.8815 102.753 89.8074 104.962 89.1931 107.316H60.1831C59.0595 102.964 56.3872 99.1711 52.6674 96.6486C48.9476 94.1261 44.4354 93.047 39.9767 93.6134C35.5181 94.1795 31.419 96.3527 28.4479 99.725C25.4767 103.097 23.8376 107.437 23.8376 111.932C23.8376 116.427 25.4767 120.767 28.4479 124.139C31.419 127.511 35.5181 129.685 39.9767 130.251C44.4354 130.817 48.9476 129.738 52.6674 127.215C56.3872 124.693 59.0595 120.9 60.1831 116.548H89.1931C90.1972 120.51 92.494 124.025 95.7197 126.535C98.9454 129.045 102.916 130.408 107.003 130.408C111.091 130.408 115.061 129.045 118.287 126.535C121.513 124.025 123.809 120.51 124.814 116.548H134.702C135.927 116.548 137.101 116.062 137.967 115.196C138.832 114.331 139.319 113.156 139.319 111.932V79.6166C139.319 78.9914 139.192 78.3725 138.945 77.7977ZM42.3726 121.165C40.5465 121.165 38.7615 120.623 37.2431 119.609C35.7249 118.594 34.5415 117.152 33.8426 115.465C33.1438 113.778 32.9608 111.922 33.3172 110.131C33.6733 108.34 34.5529 106.695 35.844 105.403C37.1354 104.112 38.7804 103.233 40.5715 102.877C42.3624 102.52 44.219 102.703 45.9061 103.402C47.5931 104.101 49.0351 105.284 50.0497 106.802C51.0642 108.321 51.6056 110.106 51.6056 111.932C51.6033 114.38 50.6297 116.727 48.8988 118.458C47.1676 120.189 44.8206 121.162 42.3726 121.165ZM107.003 51.9179H117.806L127.704 75.0002H107.003V51.9179ZM107.003 121.165C105.177 121.165 103.392 120.623 101.874 119.609C100.356 118.594 99.1722 117.152 98.4733 115.465C97.7745 113.778 97.5915 111.922 97.9479 110.131C98.304 108.34 99.1836 106.695 100.475 105.403C101.766 104.112 103.411 103.233 105.202 102.877C106.993 102.52 108.85 102.703 110.537 103.402C112.224 104.101 113.666 105.284 114.68 106.802C115.695 108.321 116.236 110.106 116.236 111.932C116.234 114.38 115.26 116.727 113.529 118.458C111.798 120.189 109.451 121.162 107.003 121.165ZM130.086 107.316H124.814C123.797 103.361 121.497 99.8561 118.273 97.3498C115.05 94.8434 111.086 93.4775 107.003 93.4661V84.2332H130.086V107.316Z" fill="#779243"/>
</svg>
