<svg width="36" height="36" viewBox="0 0 36 36" fill="none" xmlns="http://www.w3.org/2000/svg">
<path opacity="0.978" fill-rule="evenodd" clip-rule="evenodd" d="M2.81055 0.96582C3.10677 0.96582 3.403 0.96582 3.69922 0.96582C4.06483 1.07708 4.40663 1.24798 4.72461 1.47852C9.29423 6.05952 13.8743 10.6282 18.4648 15.1846C23.0554 10.6282 27.6355 6.05952 32.2051 1.47852C32.5231 1.24798 32.8649 1.07708 33.2305 0.96582C33.5267 0.96582 33.8229 0.96582 34.1191 0.96582C35.038 1.20858 35.6532 1.77824 35.9648 2.6748C35.9648 3.06218 35.9648 3.44954 35.9648 3.83691C35.8501 4.17997 35.6792 4.49897 35.4521 4.79395C30.8835 9.36261 26.3148 13.9313 21.7461 18.5C26.3376 23.0915 30.929 27.6829 35.5205 32.2744C35.7078 32.5579 35.8559 32.8541 35.9648 33.1631C35.9648 33.5505 35.9648 33.9378 35.9648 34.3252C35.6729 35.0957 35.1488 35.6425 34.3926 35.9658C33.9368 35.9658 33.4811 35.9658 33.0254 35.9658C32.7133 35.8322 32.4171 35.6613 32.1367 35.4531C27.5899 30.8949 23.0326 26.349 18.4648 21.8154C13.8971 26.349 9.33982 30.8949 4.79297 35.4531C4.51258 35.6613 4.21636 35.8322 3.9043 35.9658C3.44857 35.9658 2.99284 35.9658 2.53711 35.9658C1.78092 35.6425 1.25683 35.0957 0.964844 34.3252C0.964844 33.9378 0.964844 33.5505 0.964844 33.1631C1.07376 32.8541 1.22187 32.5579 1.40918 32.2744C6.00065 27.6829 10.5921 23.0915 15.1836 18.5C10.6149 13.9313 6.04622 9.36261 1.47754 4.79395C1.25046 4.49897 1.07957 4.17997 0.964844 3.83691C0.964844 3.44954 0.964844 3.06218 0.964844 2.6748C1.2765 1.77824 1.89174 1.20858 2.81055 0.96582Z" fill="white"/>
</svg>
