<svg width="137" height="137" viewBox="0 0 137 137" fill="none" xmlns="http://www.w3.org/2000/svg">
<circle cx="68.5" cy="68.5" r="68.5" fill="#A3A3A3"/>
<g clip-path="url(#clip0_138_755)">
<path opacity="0.977" fill-rule="evenodd" clip-rule="evenodd" d="M55.0905 24.9099C57.6151 24.9099 60.1397 24.9099 62.6643 24.9099C75.2084 26.4751 84.7957 32.6062 91.4265 43.3033C96.9049 53.706 97.2656 64.2853 92.5085 75.041C86.7824 85.9306 77.8562 92.5728 65.7298 94.9672C51.0416 97.1458 38.8695 92.6677 29.2134 81.5328C25.1745 76.2386 22.7401 70.2877 21.9102 63.6803C21.9102 61.3361 21.9102 58.9918 21.9102 56.6476C24.5545 40.8668 33.5709 30.6782 48.9593 26.082C51.0093 25.5906 53.0531 25.1999 55.0905 24.9099ZM58.1561 33.7459C68.0409 33.8645 75.9452 37.8317 81.8692 45.6476C88.0975 55.5834 87.9772 65.4412 81.5085 75.2213C74.3852 84.0895 65.1584 87.7262 53.8282 86.1312C44.3729 84.2455 37.5505 78.986 33.361 70.3525C29.1451 58.8147 31.5194 48.8668 40.4839 40.5082C45.6206 36.2871 51.5112 34.033 58.1561 33.7459Z" fill="white"/>
<path opacity="0.984" fill-rule="evenodd" clip-rule="evenodd" d="M57.9757 42.2213C60.869 41.9965 62.7024 43.2587 63.4757 46.0082C63.5658 49.1935 63.596 52.3792 63.5658 55.5656C67.0527 55.5354 70.5391 55.5656 74.0249 55.6557C76.9772 56.7819 77.969 58.8556 77.0003 61.877C76.3785 63.1354 75.3867 63.9468 74.0249 64.3115C70.5391 64.4016 67.0527 64.4317 63.5658 64.4016C63.596 67.588 63.5658 70.7737 63.4757 73.959C62.4956 77.0197 60.4218 78.1918 57.2544 77.4754C55.9138 77.0363 54.9821 76.1648 54.4593 74.8606C54.1955 71.3866 54.1053 67.9002 54.1888 64.4016C50.702 64.4317 47.2155 64.4016 43.7298 64.3115C41.1753 63.4398 40.0632 61.6664 40.3937 58.9918C40.8876 57.3557 41.9397 56.2436 43.5495 55.6557C47.0954 55.5656 50.6419 55.5354 54.1888 55.5656C54.1587 52.2591 54.1888 48.9529 54.279 45.6475C54.86 43.7732 56.0922 42.6311 57.9757 42.2213Z" fill="white"/>
<path opacity="0.968" fill-rule="evenodd" clip-rule="evenodd" d="M114.237 107.139C114.237 108.041 114.237 108.943 114.237 109.844C113.62 111.363 112.538 112.385 110.992 112.91C110.09 112.91 109.188 112.91 108.287 112.91C107.673 112.633 107.072 112.302 106.483 111.918C100.382 106.057 94.2811 100.197 88.1801 94.336C88.0598 94.2158 88.0598 94.0957 88.1801 93.9754C90.344 91.9317 92.5079 89.8879 94.6719 87.8442C100.863 93.735 107.054 99.6256 113.246 105.516C113.581 106.069 113.911 106.61 114.237 107.139Z" fill="white"/>
</g>
<defs>
<clipPath id="clip0_138_755">
<rect width="92.3279" height="88" fill="white" transform="translate(22 25)"/>
</clipPath>
</defs>
</svg>
